Normalized EMG Linear Envelopes
nRows=181
nColumns=4

endheader
time	 med_gas_r	  soleus_r	 tib_ant_r	
2.68733	  0.126529	  0.158549	  0.039511	
2.74982	  0.131595	  0.148150	  0.039338	
2.81232	  0.137884	  0.140362	  0.039855	
2.87482	  0.141804	  0.136765	  0.041082	
2.93731	  0.139822	  0.134935	  0.042483	
2.99981	  0.134424	  0.137566	  0.042638	
3.0623	  0.130458	  0.144203	  0.042124	
3.1248	  0.126377	  0.148566	  0.040841	
3.1873	  0.121389	  0.151730	  0.039901	
3.24979	  0.119448	  0.155477	  0.039724	
3.31229	  0.121880	  0.154595	  0.039028	
3.37478	  0.127265	  0.150287	  0.038564	
3.43728	  0.128697	  0.144723	  0.039068	
3.49978	  0.124662	  0.138584	  0.039582	
3.56227	  0.118551	  0.135450	  0.040292	
3.62477	  0.116813	  0.140721	  0.040776	
3.68726	  0.119634	  0.147547	  0.041187	
3.74976	  0.124707	  0.149207	  0.042205	
3.81226	  0.132298	  0.146985	  0.042268	
3.87475	  0.141141	  0.142743	  0.042437	
3.93725	  0.144441	  0.138247	  0.042868	
3.99974	  0.142357	  0.135170	  0.043196	
4.06224	  0.137439	  0.130845	  0.043769	
4.12474	  0.131142	  0.124857	  0.043337	
4.18723	  0.124105	  0.121964	  0.042415	
4.24973	  0.118516	  0.121137	  0.040895	
4.31222	  0.118358	  0.123291	  0.039207	
4.37472	  0.126164	  0.129130	  0.038960	
4.43722	  0.136904	  0.133760	  0.039010	
4.49971	  0.142124	  0.133910	  0.039578	
4.56221	  0.142099	  0.132679	  0.040648	
4.6247	  0.137319	  0.131620	  0.041567	
4.6872	  0.130445	  0.132541	  0.042485	
4.7497	  0.128156	  0.139717	  0.042876	
4.81219	  0.131186	  0.148756	  0.042739	
4.87469	  0.136527	  0.155282	  0.042347	
4.93718	  0.140719	  0.154402	  0.042770	
4.99968	  0.140654	  0.146487	  0.043465	
5.06218	  0.136219	  0.139769	  0.044767	
5.12467	  0.130889	  0.137928	  0.045707	
5.18717	  0.127467	  0.137960	  0.045514	
5.24966	  0.125613	  0.140305	  0.044366	
5.31216	  0.123968	  0.141173	  0.041821	
5.37466	  0.121980	  0.139937	  0.038821	
5.43715	  0.118531	  0.136759	  0.036579	
5.49965	  0.114041	  0.133179	  0.037701	
5.56214	  0.111766	  0.135278	  0.043380	
5.62464	  0.113645	  0.151002	  0.055684	
5.68714	  0.120416	  0.190571	  0.077359	
5.74963	  0.134334	  0.259322	  0.108967	
5.81213	  0.155478	  0.344525	  0.142717	
5.87462	  0.182310	  0.402649	  0.172153	
5.93712	  0.208190	  0.419342	  0.196260	
5.99962	  0.218559	  0.453287	  0.216728	
6.06211	  0.216426	  0.516012	  0.230857	
6.12461	  0.217839	  0.541847	  0.239219	
6.1871	  0.233261	  0.499413	  0.245961	
6.2496	  0.263214	  0.456244	  0.251284	
6.3121	  0.305183	  0.444898	  0.258358	
6.37459	  0.341911	  0.433939	  0.276527	
6.43709	  0.355198	  0.401144	  0.312330	
6.49958	  0.369078	  0.376161	  0.355450	
6.56208	  0.392818	  0.372849	  0.393965	
6.62458	  0.401508	  0.384414	  0.419127	
6.68707	  0.401538	  0.369983	  0.433222	
6.74957	  0.398684	  0.325708	  0.447696	
6.81206	  0.390486	  0.289964	  0.463274	
6.87456	  0.395507	  0.278944	  0.479907	
6.93706	  0.388927	  0.282027	  0.486262	
6.99955	  0.355373	  0.293219	  0.478237	
7.06205	  0.329133	  0.310640	  0.462457	
7.12454	  0.319153	  0.310741	  0.452727	
7.18704	  0.307613	  0.288316	  0.452845	
7.24954	  0.308380	  0.279004	  0.459264	
7.31203	  0.311566	  0.289862	  0.465897	
7.37453	  0.317249	  0.322252	  0.472601	
7.43702	  0.339567	  0.363955	  0.476844	
7.49952	  0.362121	  0.400014	  0.480911	
7.56202	  0.359093	  0.445353	  0.488511	
7.62451	  0.357165	  0.494673	  0.493751	
7.68701	  0.359386	  0.507462	  0.492620	
7.7495	  0.346791	  0.492589	  0.480733	
7.812	  0.343683	  0.503344	  0.463437	
7.8745	  0.359227	  0.548646	  0.445550	
7.93699	  0.366459	  0.574858	  0.433213	
7.99949	  0.347891	  0.541926	  0.432613	
8.06198	  0.336712	  0.462005	  0.441079	
8.12448	  0.348785	  0.408484	  0.451332	
8.18698	  0.366151	  0.398252	  0.458715	
8.24947	  0.356135	  0.406515	  0.448875	
8.31197	  0.333413	  0.397807	  0.431525	
8.37446	  0.314996	  0.395574	  0.425920	
8.43696	  0.279455	  0.394165	  0.430135	
8.49946	  0.241124	  0.366727	  0.431654	
8.56195	  0.227552	  0.350829	  0.424463	
8.62445	  0.246874	  0.353791	  0.428827	
8.68694	  0.285107	  0.341891	  0.438549	
8.74944	  0.305615	  0.296440	  0.446112	
8.81194	  0.310755	  0.255649	  0.444159	
8.87443	  0.321427	  0.242788	  0.435629	
8.93693	  0.322902	  0.250682	  0.424657	
8.99942	  0.303931	  0.263538	  0.407236	
9.06192	  0.298105	  0.270475	  0.400845	
9.12442	  0.316253	  0.272640	  0.406398	
9.18691	  0.344129	  0.271147	  0.412459	
9.24941	  0.351036	  0.265913	  0.414471	
9.3119	  0.345051	  0.260103	  0.418954	
9.3744	  0.349158	  0.272472	  0.424440	
9.4369	  0.349580	  0.293146	  0.439250	
9.49939	  0.350540	  0.315149	  0.446757	
9.56189	  0.359231	  0.325630	  0.432917	
9.62438	  0.348705	  0.315755	  0.417050	
9.68688	  0.336478	  0.293893	  0.403508	
9.74938	  0.348207	  0.275982	  0.391602	
9.81187	  0.363512	  0.266658	  0.380190	
9.87437	  0.352336	  0.272611	  0.374300	
9.93686	  0.344568	  0.273907	  0.366753	
9.99936	  0.345321	  0.269364	  0.354815	
10.0619	  0.325225	  0.252958	  0.342734	
10.1244	  0.302128	  0.229044	  0.328627	
10.1868	  0.289208	  0.208728	  0.309908	
10.2493	  0.264515	  0.192902	  0.285084	
10.3118	  0.244304	  0.188392	  0.269087	
10.3743	  0.256128	  0.203184	  0.272635	
10.4368	  0.296932	  0.231245	  0.294874	
10.4993	  0.332845	  0.252900	  0.323854	
10.5618	  0.333675	  0.261804	  0.340062	
10.6243	  0.322484	  0.247655	  0.326449	
10.6868	  0.322062	  0.211091	  0.286775	
10.7493	  0.315942	  0.172731	  0.244809	
10.8118	  0.270640	  0.147377	  0.212276	
10.8743	  0.214209	  0.134544	  0.193252	
10.9368	  0.170777	  0.132155	  0.184183	
10.9993	  0.143011	  0.135547	  0.175974	
11.0618	  0.127997	  0.138449	  0.166509	
11.1243	  0.122465	  0.134743	  0.159051	
11.1868	  0.121273	  0.124299	  0.153027	
11.2493	  0.123728	  0.115978	  0.148878	
11.3118	  0.128708	  0.114922	  0.142058	
11.3743	  0.133496	  0.119370	  0.132068	
11.4368	  0.136172	  0.125393	  0.124148	
11.4993	  0.137065	  0.129682	  0.114437	
11.5618	  0.137110	  0.129473	  0.110797	
11.6243	  0.134031	  0.122822	  0.114101	
11.6868	  0.130244	  0.114876	  0.111839	
11.7492	  0.125190	  0.112585	  0.098816	
11.8117	  0.119195	  0.118362	  0.084992	
11.8742	  0.116041	  0.129130	  0.074896	
11.9367	  0.123730	  0.136411	  0.066932	
11.9992	  0.147292	  0.137121	  0.062005	
12.0617	  0.184950	  0.135294	  0.059199	
12.1242	  0.228683	  0.130924	  0.057406	
12.1867	  0.256854	  0.126333	  0.057871	
12.2492	  0.245682	  0.123267	  0.057775	
12.3117	  0.226524	  0.118961	  0.056398	
12.3742	  0.227885	  0.114687	  0.054757	
12.4367	  0.244240	  0.111742	  0.053263	
12.4992	  0.234374	  0.113471	  0.052802	
12.5617	  0.193564	  0.121168	  0.052962	
12.6242	  0.154377	  0.130857	  0.053740	
12.6867	  0.133629	  0.138541	  0.054772	
12.7492	  0.129527	  0.141791	  0.055498	
12.8117	  0.133474	  0.139317	  0.057535	
12.8742	  0.137830	  0.132809	  0.058138	
12.9367	  0.139917	  0.128148	  0.057662	
12.9992	  0.139234	  0.126893	  0.055461	
13.0617	  0.136408	  0.128232	  0.051544	
13.1242	  0.132013	  0.131973	  0.049172	
13.1867	  0.131457	  0.137553	  0.048651	
13.2492	  0.130902	  0.139974	  0.048553	
13.3116	  0.123834	  0.137838	  0.049006	
13.3741	  0.115917	  0.138405	  0.049098	
13.4366	  0.115820	  0.143455	  0.048978	
13.4991	  0.124358	  0.146827	  0.050291	
13.5616	  0.135816	  0.143406	  0.050912	
13.6241	  0.142306	  0.137712	  0.049825	
13.6866	  0.140333	  0.131955	  0.049269	
13.7491	  0.135084	  0.126167	  0.047611	
13.8116	  0.131641	  0.123928	  0.046957	
13.8741	  0.132918	  0.127684	  0.048781	
13.9366	  0.138309	  0.132660	  0.049602	
